<?xml version="1.0" encoding="iso-8859-1"?>
<!-- Generator: Adobe Illustrator 19.0.0, SVG Export Plug-In . SVG Version: 6.00 Build 0)  -->
<svg version="1.1" id="Layer_1" xmlns="http://www.w3.org/2000/svg" xmlns:xlink="http://www.w3.org/1999/xlink" x="0px" y="0px"
	 viewBox="0 0 326.273 326.273" style="enable-background:new 0 0 326.273 326.273;" xml:space="preserve">
<g>
	<rect y="119.945" style="fill:#333E48;" width="326.273" height="202.387"/>
	<g>
		<rect x="106.816" y="205.304" style="fill:#00B3E3;" width="112.641" height="117.028"/>
		<rect x="161.251" y="205.304" style="fill:#0091B8;" width="3.771" height="117.028"/>
	</g>
	<g>
		<path style="fill:#E94F3D;" d="M65.255,119.945c0,18.019-14.607,32.627-32.627,32.627S0,137.964,0,119.945H65.255z"/>
		<path style="fill:#FFFFFF;" d="M130.51,119.945c0,18.019-14.608,32.627-32.627,32.627c-18.02,0-32.627-14.608-32.627-32.627
			H130.51z"/>
		<path style="fill:#E94F3D;" d="M195.765,119.945c0,18.019-14.608,32.627-32.628,32.627c-18.019,0-32.627-14.608-32.627-32.627
			H195.765z"/>
		<path style="fill:#FFFFFF;" d="M261.02,119.945c0,18.019-14.608,32.627-32.629,32.627c-18.018,0-32.626-14.608-32.626-32.627
			H261.02z"/>
		<path style="fill:#E94F3D;" d="M326.273,119.945c0,18.019-14.607,32.627-32.627,32.627c-18.019,0-32.627-14.608-32.627-32.627
			H326.273z"/>
	</g>
	<path style="fill:#5C6670;" d="M266.194,84.84c-11.301-46.43-53.15-80.9-103.058-80.9S71.379,38.412,60.078,84.84H0v35.105h326.273
		V84.84H266.194z"/>
	<path style="fill:#333E48;" d="M254.707,110.01c0-50.573-40.997-91.57-91.57-91.57s-91.57,40.997-91.57,91.57v9.936h183.141v-9.936
		H254.707z"/>
	<rect x="273.494" y="209.462" style="fill:#5C6670;" width="52.779" height="26.098"/>
	<rect x="32.627" y="170.315" style="fill:#5C6670;" width="52.779" height="26.097"/>
	<rect y="273.405" style="fill:#5C6670;" width="26.39" height="26.097"/>
	<g>
		<path style="fill:#FFFFFF;" d="M184.669,44.174c-2.119,0-4.145,0.392-6.017,1.1c-2.646-5.937-8.596-10.077-15.516-10.077
			c-6.92,0-12.87,4.141-15.516,10.077c-1.871-0.708-3.898-1.1-6.018-1.1c-9.38,0-16.983,7.604-16.983,16.983
			c0,9.043,7.067,16.433,15.98,16.952v25.144h45.074V78.109c8.912-0.52,15.98-7.909,15.98-16.952
			C201.654,51.778,194.05,44.174,184.669,44.174z"/>
		<rect x="161.57" y="80.962" style="fill:#5C6670;" width="3.133" height="22.292"/>
		<rect x="148.82" y="80.962" style="fill:#5C6670;" width="3.133" height="22.292"/>
		<rect x="174.32" y="80.962" style="fill:#5C6670;" width="3.133" height="22.292"/>
	</g>
</g>
<g>
</g>
<g>
</g>
<g>
</g>
<g>
</g>
<g>
</g>
<g>
</g>
<g>
</g>
<g>
</g>
<g>
</g>
<g>
</g>
<g>
</g>
<g>
</g>
<g>
</g>
<g>
</g>
<g>
</g>
</svg>
